<?xml version="1.0" encoding="UTF-8" standalone="no"?>
<!DOCTYPE svg PUBLIC "-//W3C//DTD SVG 1.1//EN"
 "http://www.w3.org/Graphics/SVG/1.1/DTD/svg11.dtd">
<!-- Generated by graphviz version 2.40.1 (20161225.0304)
 -->
<!-- Title: %0 Pages: 1 -->
<svg width="368pt" height="1356pt"
 viewBox="0.00 0.00 368.00 1356.00" xmlns="http://www.w3.org/2000/svg" xmlns:xlink="http://www.w3.org/1999/xlink">
<g id="graph0" class="graph" transform="scale(1 1) rotate(0) translate(144 1212)">
<title>%0</title>
<polygon fill="#ffffff" stroke="transparent" points="-144,144 -144,-1212 224,-1212 224,144 -144,144"/>
<!-- admins -->
<g id="node1" class="node">
<title>admins</title>
<polygon fill="#4477c9" stroke="transparent" points="3,0 3,-198 77,-198 77,0 3,0"/>
<polygon fill="#add8e6" stroke="transparent" points="3,-180 3,-198 77,-198 77,-180 3,-180"/>
<polygon fill="none" stroke="#000000" points="3,-180 3,-198 77,-198 77,-180 3,-180"/>
<text text-anchor="start" x="24.7513" y="-186.9" font-family="Times,serif" font-weight="bold" font-style="italic" font-size="9.00" fill="#000000"> admins </text>
<polygon fill="none" stroke="#000000" points="3,-160 3,-180 77,-180 77,-160 3,-160"/>
<text text-anchor="start" x="8" y="-166.9" font-family="Times,serif" font-size="9.00" fill="#000000">name: String</text>
<polygon fill="none" stroke="#000000" points="3,-140 3,-160 77,-160 77,-140 3,-140"/>
<text text-anchor="start" x="8" y="-146.9" font-family="Times,serif" font-size="9.00" fill="#000000">email: String</text>
<polygon fill="none" stroke="#000000" points="3,-120 3,-140 77,-140 77,-120 3,-120"/>
<text text-anchor="start" x="8" y="-126.9" font-family="Times,serif" font-size="9.00" fill="#000000">phone: Number</text>
<polygon fill="none" stroke="#000000" points="3,-100 3,-120 77,-120 77,-100 3,-100"/>
<text text-anchor="start" x="8" y="-106.9" font-family="Times,serif" font-size="9.00" fill="#000000">password: String</text>
<polygon fill="none" stroke="#000000" points="3,-80 3,-100 77,-100 77,-80 3,-80"/>
<text text-anchor="start" x="7.632" y="-86.9" font-family="Times,serif" font-size="9.00" fill="#000000">cpassword: String</text>
<polygon fill="none" stroke="#000000" points="3,-60 3,-80 77,-80 77,-60 3,-60"/>
<text text-anchor="start" x="8" y="-66.9" font-family="Times,serif" font-size="9.00" fill="#000000">date: Date</text>
<polygon fill="none" stroke="#000000" points="3,-40 3,-60 77,-60 77,-40 3,-40"/>
<text text-anchor="start" x="8" y="-46.9" font-family="Times,serif" font-size="9.00" fill="#000000">tokens: Array</text>
<polygon fill="none" stroke="#000000" points="3,-20 3,-40 77,-40 77,-20 3,-20"/>
<text text-anchor="start" x="8" y="-26.9" font-family="Times,serif" font-size="9.00" fill="#000000">_id: ObjectID</text>
<polygon fill="none" stroke="#000000" points="3,0 3,-20 77,-20 77,0 3,0"/>
<text text-anchor="start" x="8" y="-6.9" font-family="Times,serif" font-size="9.00" fill="#000000">__v: Number</text>
</g>
<!-- courses -->
<g id="node2" class="node">
<title>courses</title>
<polygon fill="#4477c9" stroke="transparent" points="0,-270 0,-508 80,-508 80,-270 0,-270"/>
<polygon fill="#add8e6" stroke="transparent" points="0,-490 0,-508 80,-508 80,-490 0,-490"/>
<polygon fill="none" stroke="#000000" points="0,-490 0,-508 80,-508 80,-490 0,-490"/>
<text text-anchor="start" x="24.2568" y="-496.9" font-family="Times,serif" font-weight="bold" font-style="italic" font-size="9.00" fill="#000000"> courses </text>
<polygon fill="none" stroke="#000000" points="0,-470 0,-490 80,-490 80,-470 0,-470"/>
<text text-anchor="start" x="5" y="-476.9" font-family="Times,serif" font-size="9.00" fill="#000000">name: String</text>
<polygon fill="none" stroke="#000000" points="0,-450 0,-470 80,-470 80,-450 0,-450"/>
<text text-anchor="start" x="5" y="-456.9" font-family="Times,serif" font-size="9.00" fill="#000000">courseType: String</text>
<polygon fill="none" stroke="#000000" points="0,-430 0,-450 80,-450 80,-430 0,-430"/>
<text text-anchor="start" x="5" y="-436.9" font-family="Times,serif" font-size="9.00" fill="#000000">articleBody: String</text>
<polygon fill="none" stroke="#000000" points="0,-410 0,-430 80,-430 80,-410 0,-410"/>
<text text-anchor="start" x="5" y="-416.9" font-family="Times,serif" font-size="9.00" fill="#000000">details: String</text>
<polygon fill="none" stroke="#000000" points="0,-390 0,-410 80,-410 80,-390 0,-390"/>
<text text-anchor="start" x="4.6345" y="-396.9" font-family="Times,serif" font-size="9.00" fill="#000000">codingLinks: Array</text>
<polygon fill="none" stroke="#000000" points="0,-370 0,-390 80,-390 80,-370 0,-370"/>
<text text-anchor="start" x="5" y="-376.9" font-family="Times,serif" font-size="9.00" fill="#000000">author: ObjectID</text>
<polygon fill="none" stroke="#000000" points="0,-350 0,-370 80,-370 80,-350 0,-350"/>
<text text-anchor="start" x="5" y="-356.9" font-family="Times,serif" font-size="9.00" fill="#000000">tags: Array</text>
<polygon fill="none" stroke="#000000" points="0,-330 0,-350 80,-350 80,-330 0,-330"/>
<text text-anchor="start" x="5" y="-336.9" font-family="Times,serif" font-size="9.00" fill="#000000">date: Date</text>
<polygon fill="none" stroke="#000000" points="0,-310 0,-330 80,-330 80,-310 0,-310"/>
<text text-anchor="start" x="5" y="-316.9" font-family="Times,serif" font-size="9.00" fill="#000000">mcqs: Array</text>
<polygon fill="none" stroke="#000000" points="0,-290 0,-310 80,-310 80,-290 0,-290"/>
<text text-anchor="start" x="5" y="-296.9" font-family="Times,serif" font-size="9.00" fill="#000000">_id: ObjectID</text>
<polygon fill="none" stroke="#000000" points="0,-270 0,-290 80,-290 80,-270 0,-270"/>
<text text-anchor="start" x="5" y="-276.9" font-family="Times,serif" font-size="9.00" fill="#000000">__v: Number</text>
</g>
<!-- feedbacks -->
<g id="node3" class="node">
<title>feedbacks</title>
<polygon fill="#4477c9" stroke="transparent" points="6.5,-580 6.5,-738 73.5,-738 73.5,-580 6.5,-580"/>
<polygon fill="#add8e6" stroke="transparent" points="7,-720 7,-738 74,-738 74,-720 7,-720"/>
<polygon fill="none" stroke="#000000" points="7,-720 7,-738 74,-738 74,-720 7,-720"/>
<text text-anchor="start" x="20.2617" y="-726.9" font-family="Times,serif" font-weight="bold" font-style="italic" font-size="9.00" fill="#000000"> feedbacks </text>
<polygon fill="none" stroke="#000000" points="7,-700 7,-720 74,-720 74,-700 7,-700"/>
<text text-anchor="start" x="12" y="-706.9" font-family="Times,serif" font-size="9.00" fill="#000000">name: String</text>
<polygon fill="none" stroke="#000000" points="7,-680 7,-700 74,-700 74,-680 7,-680"/>
<text text-anchor="start" x="12" y="-686.9" font-family="Times,serif" font-size="9.00" fill="#000000">email: String</text>
<polygon fill="none" stroke="#000000" points="7,-660 7,-680 74,-680 74,-660 7,-660"/>
<text text-anchor="start" x="12" y="-666.9" font-family="Times,serif" font-size="9.00" fill="#000000">phone: Number</text>
<polygon fill="none" stroke="#000000" points="7,-640 7,-660 74,-660 74,-640 7,-640"/>
<text text-anchor="start" x="11.8804" y="-646.9" font-family="Times,serif" font-size="9.00" fill="#000000">message: String</text>
<polygon fill="none" stroke="#000000" points="7,-620 7,-640 74,-640 74,-620 7,-620"/>
<text text-anchor="start" x="12" y="-626.9" font-family="Times,serif" font-size="9.00" fill="#000000">date: Date</text>
<polygon fill="none" stroke="#000000" points="7,-600 7,-620 74,-620 74,-600 7,-600"/>
<text text-anchor="start" x="12" y="-606.9" font-family="Times,serif" font-size="9.00" fill="#000000">_id: ObjectID</text>
<polygon fill="none" stroke="#000000" points="7,-580 7,-600 74,-600 74,-580 7,-580"/>
<text text-anchor="start" x="12" y="-586.9" font-family="Times,serif" font-size="9.00" fill="#000000">__v: Number</text>
</g>
<!-- users -->
<g id="node4" class="node">
<title>users</title>
<polygon fill="#4477c9" stroke="transparent" points="3,-810 3,-1068 77,-1068 77,-810 3,-810"/>
<polygon fill="#add8e6" stroke="transparent" points="3,-1050 3,-1068 77,-1068 77,-1050 3,-1050"/>
<polygon fill="none" stroke="#000000" points="3,-1050 3,-1068 77,-1068 77,-1050 3,-1050"/>
<text text-anchor="start" x="28.5043" y="-1056.9" font-family="Times,serif" font-weight="bold" font-style="italic" font-size="9.00" fill="#000000"> users </text>
<polygon fill="none" stroke="#000000" points="3,-1030 3,-1050 77,-1050 77,-1030 3,-1030"/>
<text text-anchor="start" x="8" y="-1036.9" font-family="Times,serif" font-size="9.00" fill="#000000">name: String</text>
<polygon fill="none" stroke="#000000" points="3,-1010 3,-1030 77,-1030 77,-1010 3,-1010"/>
<text text-anchor="start" x="8" y="-1016.9" font-family="Times,serif" font-size="9.00" fill="#000000">email: String</text>
<polygon fill="none" stroke="#000000" points="3,-990 3,-1010 77,-1010 77,-990 3,-990"/>
<text text-anchor="start" x="8" y="-996.9" font-family="Times,serif" font-size="9.00" fill="#000000">phone: Number</text>
<polygon fill="none" stroke="#000000" points="3,-970 3,-990 77,-990 77,-970 3,-970"/>
<text text-anchor="start" x="8" y="-976.9" font-family="Times,serif" font-size="9.00" fill="#000000">password: String</text>
<polygon fill="none" stroke="#000000" points="3,-950 3,-970 77,-970 77,-950 3,-950"/>
<text text-anchor="start" x="7.632" y="-956.9" font-family="Times,serif" font-size="9.00" fill="#000000">cpassword: String</text>
<polygon fill="none" stroke="#000000" points="3,-930 3,-950 77,-950 77,-930 3,-930"/>
<text text-anchor="start" x="8" y="-936.9" font-family="Times,serif" font-size="9.00" fill="#000000">date: Date</text>
<polygon fill="none" stroke="#000000" points="3,-910 3,-930 77,-930 77,-910 3,-910"/>
<text text-anchor="start" x="8" y="-916.9" font-family="Times,serif" font-size="9.00" fill="#000000">messages: Array</text>
<polygon fill="none" stroke="#000000" points="3,-890 3,-910 77,-910 77,-890 3,-890"/>
<text text-anchor="start" x="8" y="-896.9" font-family="Times,serif" font-size="9.00" fill="#000000">tokens: Array</text>
<polygon fill="none" stroke="#000000" points="3,-870 3,-890 77,-890 77,-870 3,-870"/>
<text text-anchor="start" x="8" y="-876.9" font-family="Times,serif" font-size="9.00" fill="#000000">courses: Array</text>
<polygon fill="none" stroke="#000000" points="3,-850 3,-870 77,-870 77,-850 3,-850"/>
<text text-anchor="start" x="8" y="-856.9" font-family="Times,serif" font-size="9.00" fill="#000000">solved: Array</text>
<polygon fill="none" stroke="#000000" points="3,-830 3,-850 77,-850 77,-830 3,-830"/>
<text text-anchor="start" x="8" y="-836.9" font-family="Times,serif" font-size="9.00" fill="#000000">_id: ObjectID</text>
<polygon fill="none" stroke="#000000" points="3,-810 3,-830 77,-830 77,-810 3,-810"/>
<text text-anchor="start" x="8" y="-816.9" font-family="Times,serif" font-size="9.00" fill="#000000">__v: Number</text>
</g>
</g>
</svg>
